<svg height="2062.667" viewBox="0 0 1547 1547" width="2062.667" xmlns="http://www.w3.org/2000/svg"><path d="m1028 22.5v22.5h473v606h46v-651h-519z"/><path d="m1076 217v23h231v411h46l.3-206.3c.1-113.4.2-216.1.2-228.2v-22l-138.7-.3-138.8-.2zm-914 245v189h46v-53h122v53h46v-307h146v249h44v-249h283v-45h-519v254h-122v-280h-46zm940.7-16.3c-.4.3-.7 46.7-.7 103v102.3h46v-206h-22.3c-12.3 0-22.7.3-23 .7zm-1102.7 113.3v92h45.5l-.2-91.7-.3-91.8-22.5-.3-22.5-.2zm716.7-81.2c-.3.4-.3 39.5 0 87l.6 86.2h45.7v-128h143v128h46v-174h-117.4c-64.6 0-117.7.3-117.9.8zm-116 197.3-17.7 17.1v376.4l13.8 13c7.5 7.2 15.6 14.7 17.8 16.7l4.1 3.7h68.4l10.7-9.9c22.9-21.3 25.6-24 25-24.7-.4-.3-22.1-.6-48.2-.5-26.2.1-49.1-.1-51.1-.5l-3.5-.6v-372.8h51.5c28.3 0 51.5-.3 51.5-.8 0-.4-7.5-8.3-16.8-17.5l-16.7-16.7h-71.1zm-183.4 2.8-17.3 16.8v373.1l16.6 16.3c9.1 9 17 16.7 17.7 17.1s16.5.8 35.2.8h34l8.5-8.3c4.7-4.5 12.5-11.9 17.3-16.4s8.7-8.7 8.7-9.2c0-.8-15.7-1.1-51-1.1h-51v-372h102.3l-16.9-17-16.9-17-35 .1h-35zm367.7 203.1v220h101.8l11.8-11.3c6.6-6.3 14-13.3 16.7-15.7l4.7-4.3v-374.7l-16-16c-8.8-8.8-16-16.4-16-17 0-.7-17.3-1-51.5-1h-51.5zm102 1v187h-68.1l.4-55.3c.2-30.3.5-114.3.5-186.4l.2-131.3 30.2-.3c16.7-.1 31.8-.3 33.6-.5l3.2-.2zm99.5-219.8c-.3.7-.4 99.8-.3 220.3l.3 219h35l.3-202.8.2-202.7h15l.2 83.6.3 83.6 17-.1h17l.3-83.6.2-83.5h17v202.5c0 111.4.3 202.5.8 202.6.4 0 8.1.1 17.2.1l16.5.2.3-220.2.2-220.2h-52.9l-8 8.2-8 8.3-8.3-8.3-8.3-8.2h-25.8c-19.7 0-25.9.3-26.2 1.2zm-986.5 665.3v219.5l773.3-.2 773.2-.3v-438l-22.7-.3-22.8-.2v393h-747v-136l299.7-.2 299.7-.3-.3-128-.2-128h-45.4l-.3 105.2-.2 105.3-414.8.2-414.7.3v45l115.2.3 115.2.2.1 68v68l-331.2-.2-331.3-.3-.2-196-.3-196-22.5-.3-22.5-.2z"/><path d="m162.7 1108.7c-.4.3-.7 58.2-.7 128.5v127.8h129v-46h-83v-211h-22.3c-12.3 0-22.7.3-23 .7zm167.3 40.3v41h802l-.2-22.8-.3-22.7-282.7-.3-282.8-.2-.2-17.8-.3-17.7h-45l-.3 17.7-.2 17.8h-144v-36h-46z"/></svg>